<?xml version="1.0" encoding="UTF-8" standalone="no"?>
<!-- Created with Inkscape (http://www.inkscape.org/) -->

<svg
   xmlns:dc="http://purl.org/dc/elements/1.1/"
   xmlns:cc="http://creativecommons.org/ns#"
   xmlns:rdf="http://www.w3.org/1999/02/22-rdf-syntax-ns#"
   xmlns:svg="http://www.w3.org/2000/svg"
   xmlns="http://www.w3.org/2000/svg"
   xmlns:sodipodi="http://sodipodi.sourceforge.net/DTD/sodipodi-0.dtd"
   xmlns:inkscape="http://www.inkscape.org/namespaces/inkscape"
   width="64px"
   height="64px"
   id="svg2816"
   version="1.1"
   inkscape:version="0.47 r22583"
   sodipodi:docname="cuneiform_logo.svg"
   inkscape:export-xdpi="22.5"
   inkscape:export-ydpi="22.5">
  <defs
     id="defs2818">
    <inkscape:perspective
       sodipodi:type="inkscape:persp3d"
       inkscape:vp_x="0 : 32 : 1"
       inkscape:vp_y="0 : 1000 : 0"
       inkscape:vp_z="64 : 32 : 1"
       inkscape:persp3d-origin="32 : 21.333333 : 1"
       id="perspective2824" />
  </defs>
  <sodipodi:namedview
     id="base"
     pagecolor="#ffffff"
     bordercolor="#666666"
     borderopacity="1.0"
     inkscape:pageopacity="0.0"
     inkscape:pageshadow="2"
     inkscape:zoom="5.5"
     inkscape:cx="57.357049"
     inkscape:cy="32"
     inkscape:current-layer="layer1"
     showgrid="true"
     inkscape:document-units="px"
     inkscape:grid-bbox="true"
     inkscape:window-width="1221"
     inkscape:window-height="756"
     inkscape:window-x="0"
     inkscape:window-y="0"
     inkscape:window-maximized="0" />
  <metadata
     id="metadata2821">
    <rdf:RDF>
      <cc:Work
         rdf:about="">
        <dc:format>image/svg+xml</dc:format>
        <dc:type
           rdf:resource="http://purl.org/dc/dcmitype/StillImage" />
        <dc:title />
      </cc:Work>
    </rdf:RDF>
  </metadata>
  <g
     id="layer1"
     inkscape:label="Layer 1"
     inkscape:groupmode="layer">
    <g
       id="g2814"
       style="font-size:78.39425658999998348px;font-style:normal;font-variant:normal;font-weight:normal;font-stretch:normal;fill:#ffffff;fill-opacity:1;stroke:#ffffff;stroke-width:4;stroke-miterlimit:4;stroke-dasharray:none;stroke-opacity:1">
      <path
         sodipodi:nodetypes="ccssccssccccccssccssssscscccccssscccccsccsssscccccssccccssscscsscccsccscccccsccssccsssccccccsscsssscccccscscsccscccccccscscscscscccccscc"
         id="path2816"
         style="font-weight:bold;stroke:#ffffff;stroke-opacity:1;stroke-width:4;stroke-miterlimit:4;stroke-dasharray:none;stroke-linecap:square;fill:#ffffff;fill-opacity:1"
         d="m 38.036744,24.494348 c -0.357299,3.138867 -0.472134,6.303215 -0.344506,9.493055 2.424266,-0.07653 4.810287,-0.114808 7.158069,-0.114836 2.347702,2.8e-5 4.695445,2.8e-5 7.043234,0 1.199343,2.8e-5 2.564606,-0.114807 4.095794,-0.344506 1.531085,-0.255161 2.832551,-0.140326 3.904401,0.344506 0.688957,0.382812 1.033462,0.727318 1.033518,1.033518 -5.6e-5,0.306255 -0.153169,0.599722 -0.459341,0.880405 -0.306283,0.280734 -0.714586,0.523164 -1.22491,0.72729 -0.510433,0.178658 -0.905977,0.267974 -1.186632,0.267949 -1.76086,0.153139 -3.521667,0.165898 -5.282425,0.03828 -1.735336,-0.153089 -3.457865,-0.229646 -5.167591,-0.229671 l -9.799282,0 0,11.177306 c 2.245634,-0.07654 4.516819,-0.114821 6.813564,-0.114835 2.296664,1.4e-5 4.56785,1.4e-5 6.813563,0 0.56137,1.4e-5 1.199343,-0.05102 1.913922,-0.153114 0.714482,-0.12758 1.429012,-0.216897 2.143593,-0.267949 0.71448,-0.07654 1.403491,-0.102061 2.067036,-0.07656 0.688959,0.02553 1.326932,0.191407 1.913923,0.49762 0.688956,0.357279 1.033462,0.701785 1.033518,1.033518 -5.6e-5,0.30624 -0.165929,0.612467 -0.49762,0.918682 -0.306283,0.280721 -0.714586,0.484873 -1.22491,0.612456 -0.484914,0.127606 -0.854939,0.191403 -1.110075,0.191392 -1.786379,0.153125 -3.559945,0.178644 -5.320704,0.07656 C 50.617547,50.383349 48.85674,50.332311 47.070457,50.3323 l -9.148548,0 0,2.143593 c -3.4e-5,1.199399 0.102042,2.577422 0.306227,4.134072 0.229637,1.55666 0.08928,2.858126 -0.421063,3.904401 -0.331779,0.791089 -0.663525,1.186632 -0.995239,1.186632 -0.331779,0 -0.638006,-0.153113 -0.918683,-0.459341 -0.28074,-0.331746 -0.51041,-0.740049 -0.689012,-1.22491 -0.178663,-0.510377 -0.267979,-0.93144 -0.267949,-1.263189 -0.127625,-1.403539 -0.165903,-2.794321 -0.114835,-4.172351 0.07653,-1.403534 0.153083,-2.819835 0.22967,-4.248907 -1.429091,0.05105 -2.832632,0.102087 -4.210629,0.153114 -1.378049,0.02553 -2.78159,0.07657 -4.210629,0.153113 -1.913942,0.127606 -3.840622,0.28072 -5.780045,0.459342 -1.913937,0.178643 -3.815098,0.370035 -5.703488,0.574176 -1.020768,0.153124 -1.913931,0.548668 -2.679492,1.186632 -0.740057,0.637983 -1.352511,1.352513 -1.837365,2.143593 -0.6634984,1.09732 -1.3652692,2.207394 -2.1053146,3.330224 -0.740053,1.122837 -1.5566591,1.748051 -2.4498205,1.875644 C 5.4873049,60.284696 5.0662424,60.080545 4.8110532,59.595683 4.5558637,59.110825 4.5048258,58.638725 4.6579394,58.17938 5.1427993,57.209664 5.7297348,56.290983 6.4187479,55.423332 7.1332764,54.555695 7.7329715,53.637013 8.2178349,52.667284 8.9578805,50.82993 9.2513483,48.877731 9.0982391,46.810682 8.97064,44.743663 8.8813237,42.740426 8.83029,40.800966 c -0.076561,-2.041494 0.025515,-4.07025 0.3062276,-6.086273 0.2807038,-2.041488 0.421058,-4.095762 0.4210629,-6.16283 -4.9e-6,-1.35247 0.1403492,-2.666695 0.4210629,-3.94268 C 10.284865,23.307755 10.348663,21.99353 10.170036,20.666504 10.016916,19.416117 9.8510434,18.152929 9.6724158,16.876937 9.5192972,15.575517 9.2641078,14.28681 8.9068469,13.010814 8.779248,12.194257 8.4602612,11.41593 7.9498858,10.675829 7.4395037,9.9358313 7.1587954,9.1830226 7.10776,8.4174009 7.1077575,8.2898597 7.1970738,8.1622651 7.3757091,8.0346165 7.5543389,7.8815567 7.6691741,7.7667215 7.7202151,7.6901105 8.1795529,7.3584185 8.6644127,7.2563428 9.174796,7.3838829 c 0.5103743,0.1276492 0.995234,0.4721549 1.454581,1.033518 0.484854,0.6890649 0.867638,1.4673925 1.148353,2.3349851 0.280702,0.867695 0.586929,1.773617 0.918683,2.71777 0.331738,0.91873 0.701763,1.850171 1.110075,2.794326 0.433813,0.944247 0.98247,1.888447 1.645973,2.832605 0.995228,0.638017 2.194618,1.161155 3.598174,1.569417 1.403527,0.382825 2.947423,0.676293 4.631692,0.880404 1.684231,0.204192 3.445038,0.344546 5.282425,0.421063 1.83734,0.05108 3.649184,0.03832 5.43554,-0.03828 -0.153144,-1.148312 -0.280738,-2.296664 -0.382785,-3.44506 -0.102105,-1.173828 -0.21694,-2.360458 -0.344506,-3.559895 -0.153142,-0.995192 -0.574205,-1.888355 -1.263189,-2.679492 -0.66352,-0.791037 -1.37805,-1.390732 -2.143592,-1.799086 C 29.194399,9.7061608 28.058806,8.9533521 26.859438,8.1877303 25.685545,7.4222158 25.034812,6.6183693 24.907237,5.7761882 24.754103,5.1893088 24.945495,4.7427273 25.481414,4.4364426 26.04281,4.1047539 26.565948,4.0409565 27.05083,4.2450504 c 1.199368,0.5614743 2.34772,1.3525614 3.44506,2.3732636 1.097289,0.9952939 2.360476,1.5567105 3.789566,1.6842516 2.220118,0.2042051 4.427506,0.2424835 6.622171,0.1148353 2.220112,-0.1275412 4.248867,-0.4082495 6.086273,-0.8421258 0.791045,-0.1530593 1.556613,-0.472046 2.296707,-0.9569611 0.740005,-0.5103235 1.531092,-0.7910318 2.373264,-0.8421258 0.153066,5.61e-5 0.29342,0.063853 0.421063,0.1913922 0.127547,0.1276507 0.255141,0.2680048 0.382784,0.4210629 0.331698,0.4338775 0.421015,0.9314968 0.267949,1.4928594 -0.127643,0.5614707 -0.484908,1.0208116 -1.071796,1.378024 -1.480146,0.9952913 -3.177155,1.7481003 -5.091034,2.2584283 -1.913962,0.48491 -3.87892,1.416352 -5.89488,2.794327 -0.561453,0.89321 -1.046313,2.003284 -1.454581,3.330224 -0.382819,1.30151 -0.676287,2.730571 -0.880404,4.287186 2.347708,-0.051 4.695451,-0.07652 7.043234,-0.07656 2.347701,4e-5 4.733722,4e-5 7.158069,0 1.097266,4e-5 2.424251,-0.114795 3.980958,-0.344506 1.582123,-0.255149 2.909107,-0.140313 3.980959,0.344506 0.739993,0.331787 1.110018,0.663533 1.110074,0.99524 -5.6e-5,0.331785 -0.16593,0.638012 -0.497619,0.918683 -0.331803,0.280746 -0.765625,0.510417 -1.301467,0.689012 -0.535953,0.17867 -0.944256,0.267986 -1.224911,0.267949 -1.709823,0.127632 -3.432351,0.127632 -5.16759,0 -1.735336,-0.153077 -3.483384,-0.229633 -5.244147,-0.229671 l -10.143788,0 M 35.165861,47.76764 c -3.1e-5,-1.862868 -3.1e-5,-3.712991 0,-5.550375 -3.1e-5,-1.837343 -0.03831,-3.674707 -0.114836,-5.512096 -1.352534,2.5e-5 -2.692278,0.01279 -4.019237,0.03828 -1.301492,0.02554 -2.628477,0.07658 -3.980958,0.153113 -1.990499,0.12762 -3.929939,0.280734 -5.818324,0.459342 -1.888418,0.178657 -3.789579,0.408327 -5.703488,0.689012 -1.275958,0.204175 -2.449829,0.880427 -3.521617,2.028757 0.357258,0.791109 0.714523,1.582196 1.071796,2.373264 0.357257,0.791107 0.816598,1.556675 1.378025,2.296707 0.995228,0.663509 2.220137,1.212167 3.67473,1.645973 1.480085,0.408319 3.087778,0.727305 4.823084,0.956961 1.73527,0.204166 3.521596,0.331761 5.358983,0.382785 1.862859,0.02553 3.712982,0.03829 5.550374,0.03828 l 1.301468,0 M 35.051025,33.987403 C 34.974438,32.78804 34.9234,31.58865 34.897911,30.389229 c -0.02555,-1.224878 -0.07659,-2.437027 -0.153113,-3.636453 -3e-5,-0.35723 -3e-5,-0.714495 0,-1.071796 -3e-5,-0.382748 -0.05107,-0.740013 -0.153114,-1.071797 -1.173901,0.07659 -2.335013,0.114873 -3.483339,0.114836 -1.148378,3.7e-5 -2.335009,0.06383 -3.559895,0.191392 -1.913943,0.07659 -3.827864,0.204189 -5.741767,0.382784 -1.913937,0.17867 -3.827858,0.4211 -5.741767,0.727291 -0.561428,0.05107 -1.097326,0.242466 -1.607694,0.574177 -0.48487,0.306262 -0.96973,0.650768 -1.454581,1.033518 0.2807,0.561451 0.548648,1.148386 0.803847,1.760808 0.280699,0.586968 0.650724,1.161144 1.110075,1.72253 0.969709,0.663523 2.181859,1.186662 3.636452,1.569416 1.454566,0.357295 3.062259,0.650763 4.823084,0.880405 1.760788,0.20418 3.572633,0.344534 5.43554,0.421063 1.888377,0.07658 3.751259,0.07658 5.588653,0 l 0.650733,0" />
    </g>
    <g
       style="font-size:78.39425659px;font-style:normal;font-variant:normal;font-weight:normal;font-stretch:normal;fill:#000000;fill-opacity:1;stroke:none;"
       id="text2826">
      <path
         d="m 38.036744,24.494348 c -0.357299,3.138867 -0.472134,6.303215 -0.344506,9.493055 2.424266,-0.07653 4.810287,-0.114808 7.158069,-0.114836 2.347702,2.8e-5 4.695445,2.8e-5 7.043234,0 1.199343,2.8e-5 2.564606,-0.114807 4.095794,-0.344506 1.531085,-0.255161 2.832551,-0.140326 3.904401,0.344506 0.688957,0.382812 1.033462,0.727318 1.033518,1.033518 -5.6e-5,0.306255 -0.153169,0.599722 -0.459341,0.880405 -0.306283,0.280734 -0.714586,0.523164 -1.22491,0.72729 -0.510433,0.178658 -0.905977,0.267974 -1.186632,0.267949 -1.76086,0.153139 -3.521667,0.165898 -5.282425,0.03828 -1.735336,-0.153089 -3.457865,-0.229646 -5.167591,-0.229671 l -9.799282,0 0,11.177306 c 2.245634,-0.07654 4.516819,-0.114821 6.813564,-0.114835 2.296664,1.4e-5 4.56785,1.4e-5 6.813563,0 0.56137,1.4e-5 1.199343,-0.05102 1.913922,-0.153114 0.714482,-0.12758 1.429012,-0.216897 2.143593,-0.267949 0.71448,-0.07654 1.403491,-0.102061 2.067036,-0.07656 0.688959,0.02553 1.326932,0.191407 1.913923,0.49762 0.688956,0.357279 1.033462,0.701785 1.033518,1.033518 -5.6e-5,0.30624 -0.165929,0.612467 -0.49762,0.918682 -0.306283,0.280721 -0.714586,0.484873 -1.22491,0.612456 -0.484914,0.127606 -0.854939,0.191403 -1.110075,0.191392 -1.786379,0.153125 -3.559945,0.178644 -5.320704,0.07656 C 50.617547,50.383349 48.85674,50.332311 47.070457,50.3323 l -9.148548,0 0,2.143593 c -3.4e-5,1.199399 0.102042,2.577422 0.306227,4.134072 0.229637,1.55666 0.08928,2.858126 -0.421063,3.904401 -0.331779,0.791089 -0.663525,1.186632 -0.995239,1.186632 -0.331779,0 -0.638006,-0.153113 -0.918683,-0.459341 -0.28074,-0.331746 -0.51041,-0.740049 -0.689012,-1.22491 -0.178663,-0.510377 -0.267979,-0.93144 -0.267949,-1.263189 -0.127625,-1.403539 -0.165903,-2.794321 -0.114835,-4.172351 0.07653,-1.403534 0.153083,-2.819835 0.22967,-4.248907 -1.429091,0.05105 -2.832632,0.102087 -4.210629,0.153114 -1.378049,0.02553 -2.78159,0.07657 -4.210629,0.153113 -1.913942,0.127606 -3.840622,0.28072 -5.780045,0.459342 -1.913937,0.178643 -3.815098,0.370035 -5.703488,0.574176 -1.020768,0.153124 -1.913931,0.548668 -2.679492,1.186632 -0.740057,0.637983 -1.352511,1.352513 -1.837365,2.143593 -0.6634984,1.09732 -1.3652692,2.207394 -2.1053146,3.330224 -0.740053,1.122837 -1.5566591,1.748051 -2.4498205,1.875644 C 5.4873049,60.284696 5.0662424,60.080545 4.8110532,59.595683 4.5558637,59.110825 4.5048258,58.638725 4.6579394,58.17938 5.1427993,57.209664 5.7297348,56.290983 6.4187479,55.423332 7.1332764,54.555695 7.7329715,53.637013 8.2178349,52.667284 8.9578805,50.82993 9.2513483,48.877731 9.0982391,46.810682 8.97064,44.743663 8.8813237,42.740426 8.83029,40.800966 c -0.076561,-2.041494 0.025515,-4.07025 0.3062276,-6.086273 0.2807038,-2.041488 0.421058,-4.095762 0.4210629,-6.16283 -4.9e-6,-1.35247 0.1403492,-2.666695 0.4210629,-3.94268 C 10.284865,23.307755 10.348663,21.99353 10.170036,20.666504 10.016916,19.416117 9.8510434,18.152929 9.6724158,16.876937 9.5192972,15.575517 9.2641078,14.28681 8.9068469,13.010814 8.779248,12.194257 8.4602612,11.41593 7.9498858,10.675829 7.4395037,9.9358313 7.1587954,9.1830226 7.10776,8.4174009 7.1077575,8.2898597 7.1970738,8.1622651 7.3757091,8.0346165 7.5543389,7.8815567 7.6691741,7.7667215 7.7202151,7.6901105 8.1795529,7.3584185 8.6644127,7.2563428 9.174796,7.3838829 c 0.5103743,0.1276492 0.995234,0.4721549 1.454581,1.033518 0.484854,0.6890649 0.867638,1.4673925 1.148353,2.3349851 0.280702,0.867695 0.586929,1.773617 0.918683,2.71777 0.331738,0.91873 0.701763,1.850171 1.110075,2.794326 0.433813,0.944247 0.98247,1.888447 1.645973,2.832605 0.995228,0.638017 2.194618,1.161155 3.598174,1.569417 1.403527,0.382825 2.947423,0.676293 4.631692,0.880404 1.684231,0.204192 3.445038,0.344546 5.282425,0.421063 1.83734,0.05108 3.649184,0.03832 5.43554,-0.03828 -0.153144,-1.148312 -0.280738,-2.296664 -0.382785,-3.44506 -0.102105,-1.173828 -0.21694,-2.360458 -0.344506,-3.559895 -0.153142,-0.995192 -0.574205,-1.888355 -1.263189,-2.679492 -0.66352,-0.791037 -1.37805,-1.390732 -2.143592,-1.799086 C 29.194399,9.7061608 28.058806,8.9533521 26.859438,8.1877303 25.685545,7.4222158 25.034812,6.6183693 24.907237,5.7761882 24.754103,5.1893088 24.945495,4.7427273 25.481414,4.4364426 26.04281,4.1047539 26.565948,4.0409565 27.05083,4.2450504 c 1.199368,0.5614743 2.34772,1.3525614 3.44506,2.3732636 1.097289,0.9952939 2.360476,1.5567105 3.789566,1.6842516 2.220118,0.2042051 4.427506,0.2424835 6.622171,0.1148353 2.220112,-0.1275412 4.248867,-0.4082495 6.086273,-0.8421258 0.791045,-0.1530593 1.556613,-0.472046 2.296707,-0.9569611 0.740005,-0.5103235 1.531092,-0.7910318 2.373264,-0.8421258 0.153066,5.61e-5 0.29342,0.063853 0.421063,0.1913922 0.127547,0.1276507 0.255141,0.2680048 0.382784,0.4210629 0.331698,0.4338775 0.421015,0.9314968 0.267949,1.4928594 -0.127643,0.5614707 -0.484908,1.0208116 -1.071796,1.378024 -1.480146,0.9952913 -3.177155,1.7481003 -5.091034,2.2584283 -1.913962,0.48491 -3.87892,1.416352 -5.89488,2.794327 -0.561453,0.89321 -1.046313,2.003284 -1.454581,3.330224 -0.382819,1.30151 -0.676287,2.730571 -0.880404,4.287186 2.347708,-0.051 4.695451,-0.07652 7.043234,-0.07656 2.347701,4e-5 4.733722,4e-5 7.158069,0 1.097266,4e-5 2.424251,-0.114795 3.980958,-0.344506 1.582123,-0.255149 2.909107,-0.140313 3.980959,0.344506 0.739993,0.331787 1.110018,0.663533 1.110074,0.99524 -5.6e-5,0.331785 -0.16593,0.638012 -0.497619,0.918683 -0.331803,0.280746 -0.765625,0.510417 -1.301467,0.689012 -0.535953,0.17867 -0.944256,0.267986 -1.224911,0.267949 -1.709823,0.127632 -3.432351,0.127632 -5.16759,0 -1.735336,-0.153077 -3.483384,-0.229633 -5.244147,-0.229671 l -10.143788,0 M 35.165861,47.76764 c -3.1e-5,-1.862868 -3.1e-5,-3.712991 0,-5.550375 -3.1e-5,-1.837343 -0.03831,-3.674707 -0.114836,-5.512096 -1.352534,2.5e-5 -2.692278,0.01279 -4.019237,0.03828 -1.301492,0.02554 -2.628477,0.07658 -3.980958,0.153113 -1.990499,0.12762 -3.929939,0.280734 -5.818324,0.459342 -1.888418,0.178657 -3.789579,0.408327 -5.703488,0.689012 -1.275958,0.204175 -2.449829,0.880427 -3.521617,2.028757 0.357258,0.791109 0.714523,1.582196 1.071796,2.373264 0.357257,0.791107 0.816598,1.556675 1.378025,2.296707 0.995228,0.663509 2.220137,1.212167 3.67473,1.645973 1.480085,0.408319 3.087778,0.727305 4.823084,0.956961 1.73527,0.204166 3.521596,0.331761 5.358983,0.382785 1.862859,0.02553 3.712982,0.03829 5.550374,0.03828 l 1.301468,0 M 35.051025,33.987403 C 34.974438,32.78804 34.9234,31.58865 34.897911,30.389229 c -0.02555,-1.224878 -0.07659,-2.437027 -0.153113,-3.636453 -3e-5,-0.35723 -3e-5,-0.714495 0,-1.071796 -3e-5,-0.382748 -0.05107,-0.740013 -0.153114,-1.071797 -1.173901,0.07659 -2.335013,0.114873 -3.483339,0.114836 -1.148378,3.7e-5 -2.335009,0.06383 -3.559895,0.191392 -1.913943,0.07659 -3.827864,0.204189 -5.741767,0.382784 -1.913937,0.17867 -3.827858,0.4211 -5.741767,0.727291 -0.561428,0.05107 -1.097326,0.242466 -1.607694,0.574177 -0.48487,0.306262 -0.96973,0.650768 -1.454581,1.033518 0.2807,0.561451 0.548648,1.148386 0.803847,1.760808 0.280699,0.586968 0.650724,1.161144 1.110075,1.72253 0.969709,0.663523 2.181859,1.186662 3.636452,1.569416 1.454566,0.357295 3.062259,0.650763 4.823084,0.880405 1.760788,0.20418 3.572633,0.344534 5.43554,0.421063 1.888377,0.07658 3.751259,0.07658 5.588653,0 l 0.650733,0"
         style="font-weight:bold;stroke:#000000;stroke-opacity:1;stroke-width:2;stroke-miterlimit:4;stroke-dasharray:none;stroke-linecap:square"
         id="path2867"
         sodipodi:nodetypes="ccssccssccccccssccssssscscccccssscccccsccsssscccccssccccssscscsscccsccscccccsccssccsssccccccsscsssscccccscscsccscccccccscscscscscccccscc" />
    </g>
  </g>
</svg>
