<?xml version="1.0" encoding="UTF-8" standalone="no"?>
<!-- Created with Inkscape (http://www.inkscape.org/) -->

<svg
   xmlns:dc="http://purl.org/dc/elements/1.1/"
   xmlns:cc="http://creativecommons.org/ns#"
   xmlns:rdf="http://www.w3.org/1999/02/22-rdf-syntax-ns#"
   xmlns:svg="http://www.w3.org/2000/svg"
   xmlns="http://www.w3.org/2000/svg"
   xmlns:xlink="http://www.w3.org/1999/xlink"
   xmlns:sodipodi="http://sodipodi.sourceforge.net/DTD/sodipodi-0.dtd"
   xmlns:inkscape="http://www.inkscape.org/namespaces/inkscape"
   width="64px"
   height="64px"
   id="svg2816"
   version="1.1"
   inkscape:version="0.47 r22583"
   sodipodi:docname="cuneiform_logo.svg"
   inkscape:export-xdpi="720"
   inkscape:export-ydpi="720"
   inkscape:export-filename="/Users/serj/work/eclipse/cuneiform-gui/gui/resources/cuneiform_logo_512.png">
  <defs
     id="defs2818">
    <linearGradient
       id="linearGradient3604">
      <stop
         style="stop-color:#ffffff;stop-opacity:1;"
         offset="0"
         id="stop3606" />
      <stop
         id="stop3612"
         offset="0.87064952"
         style="stop-color:#ffffff;stop-opacity:0.74358974" />
      <stop
         style="stop-color:#ffffff;stop-opacity:0;"
         offset="1"
         id="stop3608" />
    </linearGradient>
    <linearGradient
       id="linearGradient2834">
      <stop
         style="stop-color:#ffffff;stop-opacity:1;"
         offset="0"
         id="stop2836" />
      <stop
         id="stop2838"
         offset="0.5202651"
         style="stop-color:#ffffff;stop-opacity:0.49803922;" />
      <stop
         style="stop-color:#ffffff;stop-opacity:0"
         offset="1"
         id="stop2840" />
    </linearGradient>
    <linearGradient
       id="linearGradient3621">
      <stop
         id="stop3623"
         offset="0"
         style="stop-color:#ffffff;stop-opacity:1;" />
      <stop
         style="stop-color:#ffffff;stop-opacity:0.49803922;"
         offset="0.72838479"
         id="stop3625" />
      <stop
         id="stop3627"
         offset="1"
         style="stop-color:#ffffff;stop-opacity:0" />
    </linearGradient>
    <linearGradient
       id="linearGradient3593">
      <stop
         style="stop-color:#ffffff;stop-opacity:1;"
         offset="0"
         id="stop3595" />
      <stop
         id="stop3601"
         offset="0.67889738"
         style="stop-color:#ffffff;stop-opacity:0.49803922;" />
      <stop
         style="stop-color:#ffffff;stop-opacity:0"
         offset="1"
         id="stop3597" />
    </linearGradient>
    <inkscape:perspective
       sodipodi:type="inkscape:persp3d"
       inkscape:vp_x="0 : 32 : 1"
       inkscape:vp_y="0 : 1000 : 0"
       inkscape:vp_z="64 : 32 : 1"
       inkscape:persp3d-origin="32 : 21.333333 : 1"
       id="perspective2824" />
    <linearGradient
       inkscape:collect="always"
       xlink:href="#linearGradient3593"
       id="linearGradient3599"
       x1="31.230404"
       y1="4.3636365"
       x2="36.115868"
       y2="29.387871"
       gradientUnits="userSpaceOnUse" />
    <linearGradient
       inkscape:collect="always"
       xlink:href="#linearGradient3621"
       id="linearGradient3611"
       gradientUnits="userSpaceOnUse"
       x1="31.230404"
       y1="4.3636365"
       x2="34.31596"
       y2="28.80884"
       gradientTransform="matrix(1,0,0,1.4083703,0,-1.7819796)" />
    <linearGradient
       inkscape:collect="always"
       xlink:href="#linearGradient3604"
       id="linearGradient3610"
       x1="32.401978"
       y1="6.677804"
       x2="35.947433"
       y2="30.654459"
       gradientUnits="userSpaceOnUse"
       gradientTransform="matrix(1.049763,0,0,1.1475554,-2.0442348,-3.057981)" />
    <linearGradient
       inkscape:collect="always"
       xlink:href="#linearGradient3604"
       id="linearGradient3619"
       gradientUnits="userSpaceOnUse"
       gradientTransform="matrix(1.049763,0,0,1.1475554,-2.0442348,-3.057981)"
       x1="32.401978"
       y1="6.677804"
       x2="35.947433"
       y2="30.654459" />
  </defs>
  <sodipodi:namedview
     id="base"
     pagecolor="#ffffff"
     bordercolor="#666666"
     borderopacity="1.0"
     inkscape:pageopacity="0"
     inkscape:pageshadow="2"
     inkscape:zoom="7.7781746"
     inkscape:cx="23.200155"
     inkscape:cy="31.376099"
     inkscape:current-layer="layer1"
     showgrid="true"
     inkscape:document-units="px"
     inkscape:grid-bbox="true"
     inkscape:window-width="1222"
     inkscape:window-height="756"
     inkscape:window-x="0"
     inkscape:window-y="0"
     inkscape:window-maximized="0" />
  <metadata
     id="metadata2821">
    <rdf:RDF>
      <cc:Work
         rdf:about="">
        <dc:format>image/svg+xml</dc:format>
        <dc:type
           rdf:resource="http://purl.org/dc/dcmitype/StillImage" />
        <dc:title></dc:title>
      </cc:Work>
    </rdf:RDF>
  </metadata>
  <g
     id="layer1"
     inkscape:label="Layer 1"
     inkscape:groupmode="layer">
    <g
       id="g3614"
       transform="matrix(0.91481309,0,0,0.9034556,2.7532807,2.8394348)">
      <rect
         rx="5"
         y="4.6207662"
         x="4.717483"
         height="55.327465"
         width="54.545452"
         id="rect2816"
         style="fill:#ffffff;fill-opacity:1;stroke:none" />
      <path
         d="m 36.285143,25.737815 c -0.277576,2.438499 -0.366788,4.896794 -0.267638,7.374893 1.883346,-0.05945 3.736981,-0.08919 5.560908,-0.08921 1.823865,2.1e-5 3.647763,2.1e-5 5.471695,0 0.931736,2.1e-5 1.992372,-0.08919 3.18191,-0.267637 1.189458,-0.198228 2.200531,-0.109016 3.033221,0.267637 0.535232,0.297396 0.802869,0.565034 0.802913,0.802912 -4.4e-5,0.237921 -0.118993,0.465907 -0.35685,0.683962 -0.237943,0.218094 -0.555142,0.406432 -0.951599,0.565012 -0.396541,0.138794 -0.703829,0.208181 -0.921862,0.208162 -1.367963,0.11897 -2.735886,0.128881 -4.103771,0.02974 -1.348135,-0.11893 -2.68632,-0.178405 -4.014559,-0.178425 l -7.612794,0 0,8.683343 c 1.744572,-0.05946 3.508993,-0.0892 5.293272,-0.08922 1.784215,1.2e-5 3.548637,1.2e-5 5.29327,0 0.436113,1.2e-5 0.931736,-0.03963 1.486873,-0.118949 0.555061,-0.09911 1.11016,-0.168501 1.665299,-0.208163 0.55506,-0.05946 1.090333,-0.07928 1.605823,-0.05948 0.535233,0.01983 1.030857,0.148699 1.486874,0.386588 0.535231,0.27756 0.802869,0.545198 0.802912,0.802911 -4.3e-5,0.23791 -0.128905,0.47581 -0.386587,0.713699 -0.237943,0.218085 -0.555142,0.376685 -0.9516,0.4758 -0.376716,0.09913 -0.664178,0.148697 -0.862386,0.148688 -1.387789,0.118958 -2.765624,0.138783 -4.133509,0.05947 -1.348135,-0.07929 -2.716057,-0.118941 -4.103771,-0.11895 l -7.107257,0 0,1.665299 c -2.5e-5,0.931779 0.07928,2.002328 0.2379,3.211646 0.178399,1.209327 0.06936,2.2204 -0.327113,3.033223 -0.257749,0.614575 -0.515473,0.921862 -0.773174,0.921862 -0.257749,0 -0.495648,-0.11895 -0.713699,-0.35685 -0.218099,-0.257724 -0.396523,-0.574924 -0.535274,-0.951599 -0.138799,-0.396497 -0.208186,-0.72361 -0.208162,-0.981336 -0.09915,-1.090372 -0.128886,-2.170832 -0.08921,-3.241386 0.05945,-1.090367 0.118926,-2.190653 0.178424,-3.300859 -1.110222,0.03966 -2.200595,0.0793 -3.271122,0.11895 -1.070569,0.01983 -2.160942,0.05948 -3.271122,0.118949 -1.486889,0.09913 -2.983675,0.218084 -4.490359,0.356851 -1.486885,0.138783 -2.963845,0.28747 -4.430883,0.446062 -0.793007,0.118957 -1.48688,0.426244 -2.081624,0.921861 -0.574929,0.495632 -1.050728,1.050731 -1.427398,1.665299 -0.515454,0.852478 -1.06064,1.714864 -1.635561,2.587159 -0.574927,0.872302 -1.209326,1.358013 -1.903199,1.457137 -0.455975,0.05947 -0.783087,-0.09912 -0.981336,-0.4758 -0.19825,-0.376673 -0.2379,-0.743435 -0.11895,-1.100287 0.376674,-0.753345 0.832648,-1.467043 1.367923,-2.141098 0.555098,-0.674043 1.020985,-1.387742 1.397662,-2.141098 0.574921,-1.42739 0.802908,-2.943999 0.683962,-4.549833 -0.09913,-1.60581 -0.168516,-3.162071 -0.208163,-4.668784 -0.05947,-1.58598 0.01982,-3.162065 0.2379,-4.728258 0.218071,-1.585976 0.327109,-3.181886 0.327112,-4.787734 -3e-6,-1.050697 0.109034,-2.071682 0.327112,-3.06296 0.237896,-1.011043 0.287459,-2.032028 0.148688,-3.062959 -0.118954,-0.971391 -0.247816,-1.952727 -0.386588,-2.94401 -0.118953,-1.011038 -0.317202,-2.012198 -0.594748,-3.003485 -0.09913,-0.634361 -0.346941,-1.239022 -0.743438,-1.813985 -0.396501,-0.574885 -0.614576,-1.159721 -0.654224,-1.754512 -2e-6,-0.09908 0.06938,-0.198208 0.208163,-0.297374 0.138772,-0.118908 0.227984,-0.20812 0.267637,-0.267638 0.356847,-0.257682 0.733521,-0.336982 1.130024,-0.237899 0.396495,0.09917 0.77317,0.366804 1.130024,0.802911 0.37667,0.535316 0.674044,1.139977 0.892123,1.813986 0.218071,0.674089 0.45597,1.377874 0.7137,2.111361 0.257719,0.713737 0.545181,1.437347 0.862387,2.170836 0.337017,0.733559 0.763254,1.467082 1.278712,2.200573 0.773165,0.495657 1.704938,0.902069 2.795322,1.219236 1.090361,0.297407 2.289772,0.525394 3.598235,0.683962 1.308432,0.158632 2.676355,0.267669 4.10377,0.327112 1.427379,0.03968 2.834951,0.02977 4.222722,-0.02974 -0.118974,-0.892092 -0.218097,-1.784215 -0.297375,-2.676373 -0.07932,-0.911914 -0.168535,-1.833775 -0.267637,-2.765584 -0.118972,-0.773138 -0.446084,-1.467011 -0.981337,-2.081624 -0.515471,-0.614535 -1.07057,-1.080422 -1.665298,-1.39766 -0.832668,-0.574884 -1.71488,-1.15972 -2.646636,-1.754511 -0.911964,-0.594707 -1.417501,-1.219193 -1.516611,-1.873461 -0.118966,-0.45593 0.02972,-0.802867 0.446063,-1.040812 0.436133,-0.2576794 0.842544,-0.3072418 1.219236,-0.148687 0.931756,0.436194 1.823879,1.050768 2.676372,1.843724 0.852454,0.773216 1.833789,1.209365 2.944011,1.308448 1.724748,0.158642 3.439607,0.188379 5.144582,0.08921 1.724744,-0.09908 3.300829,-0.317157 4.728258,-0.654224 0.614541,-0.118907 1.209291,-0.366719 1.784249,-0.743436 0.57489,-0.396457 1.189464,-0.614531 1.843724,-0.654225 0.118913,4.4e-5 0.22795,0.0496 0.327112,0.148687 0.09909,0.09917 0.198212,0.208206 0.297374,0.327113 0.257688,0.337067 0.327075,0.723654 0.208163,1.159761 -0.09916,0.436191 -0.376712,0.793041 -0.832649,1.070549 -1.149885,0.773215 -2.468244,1.358051 -3.955085,1.754511 -1.486904,0.376714 -3.013426,1.100325 -4.57957,2.170836 -0.436178,0.69391 -0.812853,1.556296 -1.130025,2.58716 -0.297401,1.011107 -0.525388,2.121305 -0.683961,3.330597 1.82387,-0.03962 3.647767,-0.05944 5.471695,-0.05948 1.823864,3.1e-5 3.677498,3.1e-5 5.560908,0 0.852435,3.1e-5 1.883333,-0.08918 3.092696,-0.267638 1.229108,-0.198218 2.260006,-0.109005 3.092699,0.267638 0.574879,0.257756 0.862342,0.51548 0.862386,0.773174 -4.4e-5,0.257755 -0.128907,0.495654 -0.386587,0.713699 -0.257769,0.218105 -0.594794,0.396529 -1.011074,0.535275 -0.416367,0.138804 -0.733567,0.208191 -0.9516,0.208163 -1.328315,0.09915 -2.666499,0.09915 -4.014558,0 -1.348136,-0.118922 -2.706146,-0.178396 -4.074035,-0.178425 l -7.88043,0 M 34.05483,43.818181 c -2.4e-5,-1.44721 -2.4e-5,-2.88452 0,-4.311933 -2.4e-5,-1.427382 -0.02976,-2.85478 -0.08921,-4.282197 -1.050746,2e-5 -2.091557,0.0099 -3.122435,0.02974 -1.011093,0.01984 -2.041992,0.05949 -3.092697,0.118949 -1.546364,0.09915 -3.053062,0.218095 -4.520096,0.35685 -1.467061,0.138794 -2.94402,0.317218 -4.430884,0.535275 -0.991256,0.158618 -1.903204,0.683979 -2.735847,1.576085 0.277544,0.614591 0.555094,1.229166 0.832649,1.843724 0.277543,0.61459 0.634392,1.209338 1.07055,1.784248 0.773165,0.515463 1.724763,0.9417 2.854796,1.278712 1.149838,0.317212 2.398811,0.565023 3.746922,0.743437 1.348084,0.158611 2.735831,0.257736 4.163247,0.297375 1.447204,0.01983 2.884513,0.02975 4.311933,0.02974 l 1.011074,0 m -0.08921,-10.70549 c -0.0595,-0.931752 -0.09915,-1.863525 -0.11895,-2.795323 -0.01985,-0.951573 -0.0595,-1.893259 -0.11895,-2.825059 -2.3e-5,-0.277523 -2.3e-5,-0.555073 0,-0.83265 -2.3e-5,-0.297346 -0.03967,-0.574895 -0.118949,-0.83265 -0.911972,0.0595 -1.814008,0.08924 -2.706111,0.08921 -0.892143,2.9e-5 -1.814005,0.04959 -2.765585,0.148687 -1.48689,0.0595 -2.973762,0.158629 -4.460621,0.297375 -1.486885,0.138804 -2.973758,0.327141 -4.460621,0.565012 -0.436158,0.03967 -0.852482,0.188366 -1.248973,0.446063 -0.376682,0.237927 -0.753357,0.505564 -1.130024,0.802911 0.218068,0.436176 0.42623,0.89215 0.624486,1.367924 0.218068,0.455999 0.50553,0.902061 0.862387,1.338187 0.753341,0.515472 1.695026,0.921884 2.825059,1.219235 1.130013,0.277573 2.378986,0.50556 3.746922,0.683963 1.367908,0.158622 2.77548,0.267659 4.222723,0.327112 1.467028,0.05949 2.91425,0.05949 4.34167,0 l 0.505537,0"
         style="font-size:78.39425659px;font-style:normal;font-variant:normal;font-weight:bold;font-stretch:normal;fill:#000000;fill-opacity:1;stroke:#000000;stroke-width:1.55374515;stroke-linecap:square;stroke-miterlimit:4;stroke-opacity:1;stroke-dasharray:none"
         id="path2867"
         sodipodi:nodetypes="ccssccssccccccssccssssscscccccssscccccsccsssscccccssccccssscscsscccsccscccccsccssccsssccccccsscsssscccccscscsccscccccccscscscscscccccscc" />
      <path
         sodipodi:nodetypes="ccccccc"
         id="rect3590"
         d="m 9.734908,4.6051686 44.561442,0 c 2.770994,0 5.001795,2.4386144 5.001795,5.4677454 l 0,18.153127 -54.6559734,8.052497 0.090942,-26.205624 c 0,-3.029131 2.2308005,-5.4677454 5.0017943,-5.4677454 z"
         style="opacity:0.41025642;fill:url(#linearGradient3619);fill-opacity:1;stroke:none" />
    </g>
  </g>
</svg>
