/* XPM */
static const char * cursor_selection_text_add_xpm[] = {
"32 32 3 1",
" 	c None",
".	c #FFFFFF",
"+	c #000000",
"         ...              ...   ",
"         .+.              .+.   ",
"         .+.              .+.   ",
"         .+.           ....+....",
"         .+.           .+++++++.",
"         .+.           ....+....",
"         .+.              .+.   ",
"         ...              .+.   ",
"                          ...   ",
"........     ........           ",
".++++++.     .++++++.           ",
"........     ........           ",
"                                ",
"         ...                    ",
"         .+.                    ",
"         .+.                    ",
"         .+.                    ",
"         .+.     +++++++++++++++",
"         .+.     +..+...+...+..+",
"         .+.     +.+++++++++++.+",
"         ...     +++.........+++",
"                 +.+.+++++++.+.+",
"                 +.+.+..+..+.+.+",
"                 +.+....+....+.+",
"                 +++   .+.   +++",
"                 +.+   .+.   +.+",
"                 +.+   .+.   +.+",
"                 +.+   .+.   +.+",
"                 +++   ...   +++",
"                 +.+++++++++++.+",
"                 +..+...+...+..+",
"                 +++++++++++++++"};
